<mxfile host="Electron" modified="2023-09-25T01:34:14.520Z" agent="Mozilla/5.0 (Windows NT 10.0; Win64; x64) AppleWebKit/537.36 (KHTML, like Gecko) draw.io/21.6.8 Chrome/114.0.5735.289 Electron/25.5.0 Safari/537.36" etag="CtwJAdxTmDJ3gp08p8zX" version="21.6.8" type="device">
  <diagram name="Page-1" id="Tk5uOOPUXa6L8UK6Hk_N">
    <mxGraphModel dx="1082" dy="1089" grid="1" gridSize="10" guides="1" tooltips="1" connect="1" arrows="1" fold="1" page="1" pageScale="1" pageWidth="827" pageHeight="1169" math="0" shadow="0">
      <root>
        <mxCell id="0" />
        <mxCell id="1" parent="0" />
        <mxCell id="tps5MTiVqPj1YN9bEMCk-20" value="" style="rounded=0;whiteSpace=wrap;html=1;" vertex="1" parent="1">
          <mxGeometry y="30" width="820" height="980" as="geometry" />
        </mxCell>
        <mxCell id="rqVhncUK4-XvxPDUci2V-1" value="khách hàng" style="shape=umlActor;verticalLabelPosition=bottom;verticalAlign=top;html=1;outlineConnect=0;" parent="1" vertex="1">
          <mxGeometry x="80" y="400" width="40" height="80" as="geometry" />
        </mxCell>
        <mxCell id="rqVhncUK4-XvxPDUci2V-2" value="đăng ký" style="ellipse;whiteSpace=wrap;html=1;" parent="1" vertex="1">
          <mxGeometry x="230" y="485" width="110" height="60" as="geometry" />
        </mxCell>
        <mxCell id="rqVhncUK4-XvxPDUci2V-3" value="đặt vé" style="ellipse;whiteSpace=wrap;html=1;" parent="1" vertex="1">
          <mxGeometry x="430" y="155" width="100" height="70" as="geometry" />
        </mxCell>
        <mxCell id="rqVhncUK4-XvxPDUci2V-4" value="tra cứu" style="ellipse;whiteSpace=wrap;html=1;" parent="1" vertex="1">
          <mxGeometry x="230" y="830" width="120" height="60" as="geometry" />
        </mxCell>
        <mxCell id="rqVhncUK4-XvxPDUci2V-6" value="đăng nhập" style="ellipse;whiteSpace=wrap;html=1;" parent="1" vertex="1">
          <mxGeometry x="230" y="370" width="110" height="60" as="geometry" />
        </mxCell>
        <mxCell id="rqVhncUK4-XvxPDUci2V-7" value="đăng xuất" style="ellipse;whiteSpace=wrap;html=1;" parent="1" vertex="1">
          <mxGeometry x="230" y="240" width="110" height="60" as="geometry" />
        </mxCell>
        <mxCell id="rqVhncUK4-XvxPDUci2V-8" value="thanh toán" style="ellipse;whiteSpace=wrap;html=1;" parent="1" vertex="1">
          <mxGeometry x="430" y="580" width="100" height="60" as="geometry" />
        </mxCell>
        <mxCell id="rqVhncUK4-XvxPDUci2V-9" value="hủy vé" style="ellipse;whiteSpace=wrap;html=1;" parent="1" vertex="1">
          <mxGeometry x="435" y="50" width="90" height="50" as="geometry" />
        </mxCell>
        <mxCell id="rqVhncUK4-XvxPDUci2V-10" value="xem giờ tàu chạy" style="ellipse;whiteSpace=wrap;html=1;" parent="1" vertex="1">
          <mxGeometry x="430" y="810" width="110" height="60" as="geometry" />
        </mxCell>
        <mxCell id="rqVhncUK4-XvxPDUci2V-11" value="xem lịch trình" style="ellipse;whiteSpace=wrap;html=1;" parent="1" vertex="1">
          <mxGeometry x="430" y="890" width="100" height="60" as="geometry" />
        </mxCell>
        <mxCell id="rqVhncUK4-XvxPDUci2V-12" value="thanh toán online" style="ellipse;whiteSpace=wrap;html=1;" parent="1" vertex="1">
          <mxGeometry x="350" y="710" width="117" height="60" as="geometry" />
        </mxCell>
        <mxCell id="rqVhncUK4-XvxPDUci2V-13" value="thanh toán trực tiếp" style="ellipse;whiteSpace=wrap;html=1;" parent="1" vertex="1">
          <mxGeometry x="500" y="710" width="112.5" height="60" as="geometry" />
        </mxCell>
        <mxCell id="rqVhncUK4-XvxPDUci2V-14" value="" style="endArrow=open;startArrow=none;endFill=0;startFill=0;endSize=8;html=1;verticalAlign=bottom;labelBackgroundColor=none;strokeWidth=1;rounded=0;entryX=0;entryY=0.5;entryDx=0;entryDy=0;" parent="1" target="rqVhncUK4-XvxPDUci2V-2" edge="1">
          <mxGeometry width="160" relative="1" as="geometry">
            <mxPoint x="120" y="420" as="sourcePoint" />
            <mxPoint x="680" y="310" as="targetPoint" />
          </mxGeometry>
        </mxCell>
        <mxCell id="rqVhncUK4-XvxPDUci2V-15" value="" style="endArrow=open;startArrow=none;endFill=0;startFill=0;endSize=8;html=1;verticalAlign=bottom;labelBackgroundColor=none;strokeWidth=1;rounded=0;entryX=0;entryY=0.5;entryDx=0;entryDy=0;" parent="1" target="rqVhncUK4-XvxPDUci2V-6" edge="1">
          <mxGeometry width="160" relative="1" as="geometry">
            <mxPoint x="120" y="400" as="sourcePoint" />
            <mxPoint x="680" y="310" as="targetPoint" />
          </mxGeometry>
        </mxCell>
        <mxCell id="rqVhncUK4-XvxPDUci2V-16" value="" style="endArrow=open;startArrow=none;endFill=0;startFill=0;endSize=8;html=1;verticalAlign=bottom;labelBackgroundColor=none;strokeWidth=1;rounded=0;entryX=0;entryY=0.5;entryDx=0;entryDy=0;" parent="1" target="rqVhncUK4-XvxPDUci2V-7" edge="1">
          <mxGeometry width="160" relative="1" as="geometry">
            <mxPoint x="110" y="390" as="sourcePoint" />
            <mxPoint x="680" y="310" as="targetPoint" />
          </mxGeometry>
        </mxCell>
        <mxCell id="rqVhncUK4-XvxPDUci2V-17" value="" style="endArrow=open;startArrow=none;endFill=0;startFill=0;endSize=8;html=1;verticalAlign=bottom;labelBackgroundColor=none;strokeWidth=1;rounded=0;entryX=0;entryY=0.5;entryDx=0;entryDy=0;" parent="1" target="rqVhncUK4-XvxPDUci2V-3" edge="1">
          <mxGeometry width="160" relative="1" as="geometry">
            <mxPoint x="100" y="390" as="sourcePoint" />
            <mxPoint x="480" y="580" as="targetPoint" />
            <Array as="points">
              <mxPoint x="100" y="190" />
            </Array>
          </mxGeometry>
        </mxCell>
        <mxCell id="rqVhncUK4-XvxPDUci2V-18" value="" style="endArrow=open;startArrow=none;endFill=0;startFill=0;endSize=8;html=1;verticalAlign=bottom;labelBackgroundColor=none;strokeWidth=1;rounded=0;entryX=0;entryY=0.375;entryDx=0;entryDy=0;entryPerimeter=0;" parent="1" target="rqVhncUK4-XvxPDUci2V-4" edge="1">
          <mxGeometry width="160" relative="1" as="geometry">
            <mxPoint x="70" y="430" as="sourcePoint" />
            <mxPoint x="480" y="580" as="targetPoint" />
            <Array as="points">
              <mxPoint x="20" y="430" />
              <mxPoint x="20" y="853" />
            </Array>
          </mxGeometry>
        </mxCell>
        <mxCell id="rqVhncUK4-XvxPDUci2V-19" value="" style="endArrow=open;startArrow=none;endFill=0;startFill=0;endSize=8;html=1;verticalAlign=bottom;labelBackgroundColor=none;strokeWidth=1;rounded=0;entryX=-0.012;entryY=0.363;entryDx=0;entryDy=0;entryPerimeter=0;" parent="1" target="rqVhncUK4-XvxPDUci2V-8" edge="1">
          <mxGeometry width="160" relative="1" as="geometry">
            <mxPoint x="100" y="510" as="sourcePoint" />
            <mxPoint x="480" y="580" as="targetPoint" />
            <Array as="points">
              <mxPoint x="100" y="602" />
            </Array>
          </mxGeometry>
        </mxCell>
        <mxCell id="rqVhncUK4-XvxPDUci2V-21" value="&amp;lt;&amp;lt;extend&amp;gt;&amp;gt;" style="html=1;verticalAlign=bottom;labelBackgroundColor=none;endArrow=open;endFill=0;dashed=1;rounded=0;exitX=0.5;exitY=1;exitDx=0;exitDy=0;entryX=0.5;entryY=0;entryDx=0;entryDy=0;" parent="1" source="rqVhncUK4-XvxPDUci2V-7" target="rqVhncUK4-XvxPDUci2V-6" edge="1">
          <mxGeometry width="160" relative="1" as="geometry">
            <mxPoint x="380" y="730" as="sourcePoint" />
            <mxPoint x="450" y="440" as="targetPoint" />
          </mxGeometry>
        </mxCell>
        <mxCell id="rqVhncUK4-XvxPDUci2V-22" value="&amp;lt;&amp;lt;inlcude&amp;gt;&amp;gt;" style="html=1;verticalAlign=bottom;labelBackgroundColor=none;endArrow=open;endFill=0;dashed=1;rounded=0;exitX=0.5;exitY=1;exitDx=0;exitDy=0;entryX=0.5;entryY=0;entryDx=0;entryDy=0;" parent="1" source="rqVhncUK4-XvxPDUci2V-9" target="rqVhncUK4-XvxPDUci2V-3" edge="1">
          <mxGeometry width="160" relative="1" as="geometry">
            <mxPoint x="450" y="270" as="sourcePoint" />
            <mxPoint x="610" y="270" as="targetPoint" />
          </mxGeometry>
        </mxCell>
        <mxCell id="rqVhncUK4-XvxPDUci2V-27" value="" style="endArrow=block;html=1;rounded=0;align=center;verticalAlign=bottom;endFill=0;labelBackgroundColor=none;endSize=8;exitX=0;exitY=0.5;exitDx=0;exitDy=0;entryX=1.012;entryY=0.407;entryDx=0;entryDy=0;entryPerimeter=0;" parent="1" source="rqVhncUK4-XvxPDUci2V-10" target="rqVhncUK4-XvxPDUci2V-4" edge="1">
          <mxGeometry relative="1" as="geometry">
            <mxPoint x="270" y="1070" as="sourcePoint" />
            <mxPoint x="430" y="1070" as="targetPoint" />
          </mxGeometry>
        </mxCell>
        <mxCell id="rqVhncUK4-XvxPDUci2V-28" value="" style="resizable=0;html=1;align=center;verticalAlign=top;labelBackgroundColor=none;" parent="rqVhncUK4-XvxPDUci2V-27" connectable="0" vertex="1">
          <mxGeometry relative="1" as="geometry" />
        </mxCell>
        <mxCell id="rqVhncUK4-XvxPDUci2V-29" value="" style="endArrow=block;html=1;rounded=0;align=center;verticalAlign=bottom;endFill=0;labelBackgroundColor=none;endSize=8;exitX=0;exitY=0.5;exitDx=0;exitDy=0;entryX=0.945;entryY=0.777;entryDx=0;entryDy=0;entryPerimeter=0;" parent="1" source="rqVhncUK4-XvxPDUci2V-11" target="rqVhncUK4-XvxPDUci2V-4" edge="1">
          <mxGeometry relative="1" as="geometry">
            <mxPoint x="482" y="926" as="sourcePoint" />
            <mxPoint x="350" y="930" as="targetPoint" />
          </mxGeometry>
        </mxCell>
        <mxCell id="rqVhncUK4-XvxPDUci2V-30" value="" style="resizable=0;html=1;align=center;verticalAlign=top;labelBackgroundColor=none;" parent="rqVhncUK4-XvxPDUci2V-29" connectable="0" vertex="1">
          <mxGeometry relative="1" as="geometry" />
        </mxCell>
        <mxCell id="rqVhncUK4-XvxPDUci2V-31" value="" style="endArrow=block;html=1;rounded=0;align=center;verticalAlign=bottom;endFill=0;labelBackgroundColor=none;endSize=8;exitX=0.5;exitY=0;exitDx=0;exitDy=0;entryX=0.217;entryY=0.992;entryDx=0;entryDy=0;entryPerimeter=0;" parent="1" source="rqVhncUK4-XvxPDUci2V-12" target="rqVhncUK4-XvxPDUci2V-8" edge="1">
          <mxGeometry relative="1" as="geometry">
            <mxPoint x="892" y="890" as="sourcePoint" />
            <mxPoint x="640" y="770" as="targetPoint" />
          </mxGeometry>
        </mxCell>
        <mxCell id="rqVhncUK4-XvxPDUci2V-32" value="" style="resizable=0;html=1;align=center;verticalAlign=top;labelBackgroundColor=none;" parent="rqVhncUK4-XvxPDUci2V-31" connectable="0" vertex="1">
          <mxGeometry relative="1" as="geometry" />
        </mxCell>
        <mxCell id="rqVhncUK4-XvxPDUci2V-33" value="" style="endArrow=block;html=1;rounded=0;align=center;verticalAlign=bottom;endFill=0;labelBackgroundColor=none;endSize=8;exitX=0.453;exitY=-0.042;exitDx=0;exitDy=0;entryX=0.743;entryY=1.036;entryDx=0;entryDy=0;exitPerimeter=0;entryPerimeter=0;" parent="1" source="rqVhncUK4-XvxPDUci2V-13" target="rqVhncUK4-XvxPDUci2V-8" edge="1">
          <mxGeometry relative="1" as="geometry">
            <mxPoint x="824" y="960" as="sourcePoint" />
            <mxPoint x="692" y="964" as="targetPoint" />
          </mxGeometry>
        </mxCell>
        <mxCell id="rqVhncUK4-XvxPDUci2V-34" value="" style="resizable=0;html=1;align=center;verticalAlign=top;labelBackgroundColor=none;" parent="rqVhncUK4-XvxPDUci2V-33" connectable="0" vertex="1">
          <mxGeometry relative="1" as="geometry" />
        </mxCell>
        <mxCell id="rqVhncUK4-XvxPDUci2V-36" value="đặt vé tháng" style="ellipse;whiteSpace=wrap;html=1;" parent="1" vertex="1">
          <mxGeometry x="590" y="165" width="90" height="50" as="geometry" />
        </mxCell>
        <mxCell id="rqVhncUK4-XvxPDUci2V-37" value="đặt vé ngày" style="ellipse;whiteSpace=wrap;html=1;" parent="1" vertex="1">
          <mxGeometry x="590" y="240" width="90" height="50" as="geometry" />
        </mxCell>
        <mxCell id="rqVhncUK4-XvxPDUci2V-38" value="đặt vé năm" style="ellipse;whiteSpace=wrap;html=1;" parent="1" vertex="1">
          <mxGeometry x="590" y="100" width="90" height="45" as="geometry" />
        </mxCell>
        <mxCell id="rqVhncUK4-XvxPDUci2V-39" value="" style="endArrow=block;html=1;rounded=0;align=center;verticalAlign=bottom;endFill=0;labelBackgroundColor=none;endSize=8;exitX=0;exitY=0.5;exitDx=0;exitDy=0;entryX=1;entryY=1;entryDx=0;entryDy=0;" parent="1" source="rqVhncUK4-XvxPDUci2V-37" target="rqVhncUK4-XvxPDUci2V-3" edge="1">
          <mxGeometry relative="1" as="geometry">
            <mxPoint x="580" y="440" as="sourcePoint" />
            <mxPoint x="448" y="444" as="targetPoint" />
          </mxGeometry>
        </mxCell>
        <mxCell id="rqVhncUK4-XvxPDUci2V-40" value="" style="resizable=0;html=1;align=center;verticalAlign=top;labelBackgroundColor=none;" parent="rqVhncUK4-XvxPDUci2V-39" connectable="0" vertex="1">
          <mxGeometry relative="1" as="geometry" />
        </mxCell>
        <mxCell id="rqVhncUK4-XvxPDUci2V-41" value="" style="endArrow=block;html=1;rounded=0;align=center;verticalAlign=bottom;endFill=0;labelBackgroundColor=none;endSize=8;entryX=1;entryY=0.5;entryDx=0;entryDy=0;" parent="1" source="rqVhncUK4-XvxPDUci2V-36" target="rqVhncUK4-XvxPDUci2V-3" edge="1">
          <mxGeometry relative="1" as="geometry">
            <mxPoint x="540" y="304.5" as="sourcePoint" />
            <mxPoint x="592" y="235.5" as="targetPoint" />
          </mxGeometry>
        </mxCell>
        <mxCell id="rqVhncUK4-XvxPDUci2V-42" value="" style="resizable=0;html=1;align=center;verticalAlign=top;labelBackgroundColor=none;" parent="rqVhncUK4-XvxPDUci2V-41" connectable="0" vertex="1">
          <mxGeometry relative="1" as="geometry" />
        </mxCell>
        <mxCell id="rqVhncUK4-XvxPDUci2V-43" value="" style="endArrow=block;html=1;rounded=0;align=center;verticalAlign=bottom;endFill=0;labelBackgroundColor=none;endSize=8;entryX=1;entryY=0;entryDx=0;entryDy=0;exitX=0;exitY=0.5;exitDx=0;exitDy=0;" parent="1" source="rqVhncUK4-XvxPDUci2V-38" target="rqVhncUK4-XvxPDUci2V-3" edge="1">
          <mxGeometry relative="1" as="geometry">
            <mxPoint x="630" y="259" as="sourcePoint" />
            <mxPoint x="682" y="190" as="targetPoint" />
          </mxGeometry>
        </mxCell>
        <mxCell id="rqVhncUK4-XvxPDUci2V-44" value="" style="resizable=0;html=1;align=center;verticalAlign=top;labelBackgroundColor=none;" parent="rqVhncUK4-XvxPDUci2V-43" connectable="0" vertex="1">
          <mxGeometry relative="1" as="geometry" />
        </mxCell>
        <mxCell id="rqVhncUK4-XvxPDUci2V-46" value="xác thực" style="ellipse;whiteSpace=wrap;html=1;" parent="1" vertex="1">
          <mxGeometry x="430" y="370" width="100" height="60" as="geometry" />
        </mxCell>
        <mxCell id="rqVhncUK4-XvxPDUci2V-47" value="xác thực thông tin" style="ellipse;whiteSpace=wrap;html=1;" parent="1" vertex="1">
          <mxGeometry x="595" y="330" width="90" height="50" as="geometry" />
        </mxCell>
        <mxCell id="rqVhncUK4-XvxPDUci2V-48" value="xác thực tài khoản thanh toán" style="ellipse;whiteSpace=wrap;html=1;" parent="1" vertex="1">
          <mxGeometry x="595" y="420" width="100" height="60" as="geometry" />
        </mxCell>
        <mxCell id="rqVhncUK4-XvxPDUci2V-50" value="&amp;lt;&amp;lt;include&amp;gt;&amp;gt;" style="html=1;verticalAlign=bottom;labelBackgroundColor=none;endArrow=open;endFill=0;dashed=1;rounded=0;exitX=0.5;exitY=1;exitDx=0;exitDy=0;entryX=0.5;entryY=0;entryDx=0;entryDy=0;" parent="1" source="rqVhncUK4-XvxPDUci2V-3" target="rqVhncUK4-XvxPDUci2V-46" edge="1">
          <mxGeometry width="160" relative="1" as="geometry">
            <mxPoint x="640" y="420" as="sourcePoint" />
            <mxPoint x="800" y="420" as="targetPoint" />
          </mxGeometry>
        </mxCell>
        <mxCell id="rqVhncUK4-XvxPDUci2V-52" value="&amp;lt;&amp;lt;include&amp;gt;&amp;gt;" style="html=1;verticalAlign=bottom;labelBackgroundColor=none;endArrow=open;endFill=0;dashed=1;rounded=0;exitX=0.5;exitY=0;exitDx=0;exitDy=0;entryX=0.5;entryY=1;entryDx=0;entryDy=0;" parent="1" source="rqVhncUK4-XvxPDUci2V-8" target="rqVhncUK4-XvxPDUci2V-46" edge="1">
          <mxGeometry width="160" relative="1" as="geometry">
            <mxPoint x="720" y="780" as="sourcePoint" />
            <mxPoint x="880" y="780" as="targetPoint" />
          </mxGeometry>
        </mxCell>
        <mxCell id="rqVhncUK4-XvxPDUci2V-55" value="" style="endArrow=block;html=1;rounded=0;align=center;verticalAlign=bottom;endFill=0;labelBackgroundColor=none;endSize=8;exitX=0;exitY=0.5;exitDx=0;exitDy=0;entryX=1;entryY=0.5;entryDx=0;entryDy=0;" parent="1" source="rqVhncUK4-XvxPDUci2V-47" target="rqVhncUK4-XvxPDUci2V-46" edge="1">
          <mxGeometry relative="1" as="geometry">
            <mxPoint x="700.5" y="454" as="sourcePoint" />
            <mxPoint x="522.5" y="355" as="targetPoint" />
          </mxGeometry>
        </mxCell>
        <mxCell id="rqVhncUK4-XvxPDUci2V-56" value="" style="resizable=0;html=1;align=center;verticalAlign=top;labelBackgroundColor=none;" parent="rqVhncUK4-XvxPDUci2V-55" connectable="0" vertex="1">
          <mxGeometry relative="1" as="geometry" />
        </mxCell>
        <mxCell id="rqVhncUK4-XvxPDUci2V-57" value="" style="endArrow=block;html=1;rounded=0;align=center;verticalAlign=bottom;endFill=0;labelBackgroundColor=none;endSize=8;exitX=-0.019;exitY=0.385;exitDx=0;exitDy=0;exitPerimeter=0;entryX=1.024;entryY=0.589;entryDx=0;entryDy=0;entryPerimeter=0;" parent="1" source="rqVhncUK4-XvxPDUci2V-48" target="rqVhncUK4-XvxPDUci2V-46" edge="1">
          <mxGeometry relative="1" as="geometry">
            <mxPoint x="680.5" y="564.5" as="sourcePoint" />
            <mxPoint x="502.5" y="465.5" as="targetPoint" />
          </mxGeometry>
        </mxCell>
        <mxCell id="rqVhncUK4-XvxPDUci2V-58" value="" style="resizable=0;html=1;align=center;verticalAlign=top;labelBackgroundColor=none;" parent="rqVhncUK4-XvxPDUci2V-57" connectable="0" vertex="1">
          <mxGeometry relative="1" as="geometry" />
        </mxCell>
        <mxCell id="tps5MTiVqPj1YN9bEMCk-8" value="&amp;lt;&amp;lt;include&amp;gt;&amp;gt;" style="html=1;verticalAlign=bottom;labelBackgroundColor=none;endArrow=open;endFill=0;dashed=1;rounded=0;exitX=0.5;exitY=1;exitDx=0;exitDy=0;entryX=0.5;entryY=0;entryDx=0;entryDy=0;" edge="1" parent="1" source="rqVhncUK4-XvxPDUci2V-6" target="rqVhncUK4-XvxPDUci2V-2">
          <mxGeometry width="160" relative="1" as="geometry">
            <mxPoint x="410" y="430" as="sourcePoint" />
            <mxPoint x="570" y="430" as="targetPoint" />
          </mxGeometry>
        </mxCell>
        <mxCell id="tps5MTiVqPj1YN9bEMCk-9" value="cong dv thanh toan" style="shape=umlActor;verticalLabelPosition=bottom;verticalAlign=top;html=1;outlineConnect=0;" vertex="1" parent="1">
          <mxGeometry x="750" y="580" width="30" height="60" as="geometry" />
        </mxCell>
        <mxCell id="tps5MTiVqPj1YN9bEMCk-10" value="&amp;lt;&amp;lt;include&amp;gt;&amp;gt;" style="html=1;verticalAlign=bottom;labelBackgroundColor=none;endArrow=open;endFill=0;dashed=1;rounded=0;entryX=1;entryY=0.5;entryDx=0;entryDy=0;exitX=0;exitY=0.5;exitDx=0;exitDy=0;" edge="1" parent="1" source="rqVhncUK4-XvxPDUci2V-46" target="rqVhncUK4-XvxPDUci2V-6">
          <mxGeometry width="160" relative="1" as="geometry">
            <mxPoint x="390" y="435" as="sourcePoint" />
            <mxPoint x="610" y="480" as="targetPoint" />
          </mxGeometry>
        </mxCell>
        <mxCell id="tps5MTiVqPj1YN9bEMCk-11" value="" style="endArrow=none;html=1;rounded=0;exitX=1;exitY=0.5;exitDx=0;exitDy=0;" edge="1" parent="1" source="rqVhncUK4-XvxPDUci2V-8">
          <mxGeometry width="50" height="50" relative="1" as="geometry">
            <mxPoint x="690" y="770" as="sourcePoint" />
            <mxPoint x="740" y="610" as="targetPoint" />
          </mxGeometry>
        </mxCell>
      </root>
    </mxGraphModel>
  </diagram>
</mxfile>
